<svg xmlns="http://www.w3.org/2000/svg" width="1200" height="720" viewBox="0 0 1200 720">
<style>
text{font-family:Arial,Helvetica,sans-serif;fill:#1f2937}
.grid{stroke:#e5e7eb;stroke-width:1}
.axis{stroke:#374151;stroke-width:1.5}
.curve{fill:none;stroke:#2563eb;stroke-width:3}
.best{fill:#dc2626;stroke:white;stroke-width:2}
</style>
<rect width="100%" height="100%" fill="white"/>
<text x="600.0" y="28" text-anchor="middle" font-size="22" font-weight="700">Earth to 2015 XF261 Lambert Transfer</text>
<text x="600.0" y="52" text-anchor="middle" font-size="14">Departure DV1 magnitude, arrival fixed at 2029-04-10</text>
<line class="grid" x1="90" y1="625.00" x2="1160" y2="625.00"/>
<text x="78" y="629.00" text-anchor="end" font-size="12">0.00</text>
<line class="grid" x1="90" y1="512.00" x2="1160" y2="512.00"/>
<text x="78" y="516.00" text-anchor="end" font-size="12">9.07</text>
<line class="grid" x1="90" y1="399.00" x2="1160" y2="399.00"/>
<text x="78" y="403.00" text-anchor="end" font-size="12">18.14</text>
<line class="grid" x1="90" y1="286.00" x2="1160" y2="286.00"/>
<text x="78" y="290.00" text-anchor="end" font-size="12">27.21</text>
<line class="grid" x1="90" y1="173.00" x2="1160" y2="173.00"/>
<text x="78" y="177.00" text-anchor="end" font-size="12">36.28</text>
<line class="grid" x1="90" y1="60.00" x2="1160" y2="60.00"/>
<text x="78" y="64.00" text-anchor="end" font-size="12">45.35</text>
<line class="grid" x1="90.00" y1="60" x2="90.00" y2="625"/>
<text x="90.00" y="649" text-anchor="middle" font-size="12">2028-03</text>
<line class="grid" x1="270.27" y1="60" x2="270.27" y2="625"/>
<text x="270.27" y="649" text-anchor="middle" font-size="12">2028-04</text>
<line class="grid" x1="444.73" y1="60" x2="444.73" y2="625"/>
<text x="444.73" y="649" text-anchor="middle" font-size="12">2028-05</text>
<line class="grid" x1="625.00" y1="60" x2="625.00" y2="625"/>
<text x="625.00" y="649" text-anchor="middle" font-size="12">2028-06</text>
<line class="grid" x1="799.46" y1="60" x2="799.46" y2="625"/>
<text x="799.46" y="649" text-anchor="middle" font-size="12">2028-07</text>
<line class="grid" x1="979.73" y1="60" x2="979.73" y2="625"/>
<text x="979.73" y="649" text-anchor="middle" font-size="12">2028-08</text>
<line class="grid" x1="1160.00" y1="60" x2="1160.00" y2="625"/>
<text x="1160.00" y="649" text-anchor="middle" font-size="12">2028-09</text>
<line class="axis" x1="90" y1="625" x2="1160" y2="625"/>
<line class="axis" x1="90" y1="60" x2="90" y2="625"/>
<polyline class="curve" points="90.00,160.81 95.82,158.90 101.63,156.99 107.45,155.10 113.26,153.21 119.08,151.33 124.89,149.46 130.71,147.59 136.52,145.73 142.34,143.87 148.15,142.00 153.97,140.14 159.78,138.27 165.60,136.39 171.41,134.51 177.23,132.62 183.04,130.73 188.86,128.83 194.67,126.94 200.49,125.04 206.30,123.15 212.12,121.25 217.93,119.36 223.75,117.47 229.57,115.59 235.38,113.71 241.20,111.84 247.01,109.98 252.83,108.12 258.64,106.28 264.46,104.44 270.27,102.61 276.09,100.80 281.90,98.99 287.72,97.20 293.53,95.41 299.35,93.63 305.16,91.86 310.98,304.85 316.79,451.07 322.61,509.66 328.42,539.33 334.24,557.00 340.05,568.67 345.87,576.94 351.68,583.10 357.50,587.87 363.32,591.66 369.13,594.76 374.95,597.34 380.76,599.52 386.58,601.39 392.39,603.01 398.21,604.43 404.02,605.68 409.84,606.80 415.65,607.79 421.47,608.69 427.28,609.50 433.10,610.23 438.91,610.89 444.73,611.50 450.54,612.04 456.36,612.54 462.17,612.99 467.99,613.40 473.80,613.78 479.62,614.12 485.43,614.44 491.25,614.74 497.07,615.02 502.88,615.29 508.70,615.54 514.51,615.79 520.33,616.03 526.14,616.26 531.96,616.48 537.77,616.70 543.59,616.91 549.40,617.12 555.22,617.32 561.03,617.52 566.85,617.72 572.66,617.90 578.48,618.09 584.29,618.26 590.11,618.43 595.92,618.59 601.74,618.74 607.55,618.88 613.37,619.00 619.18,619.12 625.00,619.22 630.82,619.31 636.63,619.39 642.45,619.46 648.26,619.52 654.08,619.58 659.89,619.64 665.71,619.70 671.52,619.76 677.34,619.83 683.15,619.89 688.97,619.96 694.78,620.03 700.60,620.11 706.41,620.19 712.23,620.27 718.04,620.35 723.86,620.44 729.67,620.53 735.49,620.62 741.30,620.71 747.12,620.80 752.93,620.89 758.75,620.98 764.57,621.06 770.38,621.13 776.20,621.20 782.01,621.25 787.83,621.30 793.64,621.33 799.46,621.36 805.27,621.38 811.09,621.40 816.90,621.41 822.72,621.43 828.53,621.44 834.35,621.46 840.16,621.48 845.98,621.50 851.79,621.52 857.61,621.55 863.42,621.59 869.24,621.63 875.05,621.67 880.87,621.72 886.68,621.77 892.50,621.83 898.32,621.89 904.13,621.95 909.95,622.02 915.76,622.08 921.58,622.15 927.39,622.20 933.21,622.26 939.02,622.30 944.84,622.34 950.65,622.36 956.47,622.38 962.28,622.38 968.10,622.39 973.91,622.38 979.73,622.38 985.54,622.37 991.36,622.37 997.17,622.36 1002.99,622.36 1008.80,622.37 1014.62,622.37 1020.43,622.38 1026.25,622.40 1032.07,622.41 1037.88,622.44 1043.70,622.47 1049.51,622.50 1055.33,622.53 1061.14,622.57 1066.96,622.61 1072.77,622.65 1078.59,622.69 1084.40,622.73 1090.22,622.77 1096.03,622.79 1101.85,622.81 1107.66,622.82 1113.48,622.81 1119.29,622.80 1125.11,622.78 1130.92,622.76 1136.74,622.73 1142.55,622.69 1148.37,622.66 1154.18,622.63 1160.00,622.59"/>
<circle class="best" cx="1107.66" cy="622.82" r="6"/>
<text x="1119.66" y="612.82" font-size="13" font-weight="700">min 0.175 km/s</text>
<text x="1119.66" y="630.82" font-size="12">2028-08-23</text>
<text x="600.0" y="700" text-anchor="middle" font-size="14">Earth departure date (UTC)</text>
<text transform="translate(24 360.0) rotate(-90)" text-anchor="middle" font-size="14">DV1 magnitude (km/s)</text>
<text x="1160" y="78" text-anchor="end" font-size="12">points: 185, mean: 9.023 km/s</text>
</svg>